<mxfile host="app.diagrams.net" modified="2020-05-01T05:53:12.043Z" agent="5.0 (Windows NT 10.0; Win64; x64) AppleWebKit/537.36 (KHTML, like Gecko) Chrome/81.0.4044.129 Safari/537.36" etag="Z4X-J9AgmNsM3Ntxc5NA" version="13.0.4" type="github">
  <diagram id="Kfxzu4WNDiXpRFnh1rdB" name="Page-1">
    <mxGraphModel dx="1345" dy="538" grid="1" gridSize="10" guides="1" tooltips="1" connect="1" arrows="1" fold="1" page="1" pageScale="1" pageWidth="1169" pageHeight="827" math="0" shadow="0">
      <root>
        <mxCell id="0" />
        <mxCell id="1" parent="0" />
        <mxCell id="cmc34sxKMiM8Dir4Bc9d-112" value="" style="group" vertex="1" connectable="0" parent="1">
          <mxGeometry x="410" y="210" width="180" height="320" as="geometry" />
        </mxCell>
        <mxCell id="cmc34sxKMiM8Dir4Bc9d-101" value="" style="group" vertex="1" connectable="0" parent="cmc34sxKMiM8Dir4Bc9d-112">
          <mxGeometry width="180" height="320" as="geometry" />
        </mxCell>
        <mxCell id="cmc34sxKMiM8Dir4Bc9d-102" value="" style="group" vertex="1" connectable="0" parent="cmc34sxKMiM8Dir4Bc9d-101">
          <mxGeometry width="180" height="320" as="geometry" />
        </mxCell>
        <mxCell id="cmc34sxKMiM8Dir4Bc9d-103" value="BIP32-ED25519" style="rounded=1;whiteSpace=wrap;html=1;verticalAlign=top;fillColor=#e1d5e7;strokeColor=#9673a6;" vertex="1" parent="cmc34sxKMiM8Dir4Bc9d-102">
          <mxGeometry width="180" height="320" as="geometry" />
        </mxCell>
        <mxCell id="cmc34sxKMiM8Dir4Bc9d-104" value="MG: BIP32-ED25519" style="rounded=1;whiteSpace=wrap;html=1;fillColor=#e1d5e7;strokeColor=#9673a6;" vertex="1" parent="cmc34sxKMiM8Dir4Bc9d-102">
          <mxGeometry x="7.5" y="100" width="165" height="40" as="geometry" />
        </mxCell>
        <mxCell id="cmc34sxKMiM8Dir4Bc9d-105" value="EK: (k,c), (K, c)" style="rounded=1;whiteSpace=wrap;html=1;fillColor=#e1d5e7;strokeColor=#9673a6;" vertex="1" parent="cmc34sxKMiM8Dir4Bc9d-102">
          <mxGeometry x="7.5" y="65" width="165" height="30" as="geometry" />
        </mxCell>
        <mxCell id="cmc34sxKMiM8Dir4Bc9d-106" value="C: Curve25519" style="rounded=1;whiteSpace=wrap;html=1;fillColor=#e1d5e7;strokeColor=#9673a6;" vertex="1" parent="cmc34sxKMiM8Dir4Bc9d-102">
          <mxGeometry x="7.5" y="30" width="165" height="30" as="geometry" />
        </mxCell>
        <mxCell id="cmc34sxKMiM8Dir4Bc9d-107" value="WS: BIP44" style="rounded=1;whiteSpace=wrap;html=1;fillColor=#e1d5e7;strokeColor=#9673a6;" vertex="1" parent="cmc34sxKMiM8Dir4Bc9d-102">
          <mxGeometry x="7.5" y="270" width="165" height="30" as="geometry" />
        </mxCell>
        <mxCell id="cmc34sxKMiM8Dir4Bc9d-108" value="" style="group" vertex="1" connectable="0" parent="cmc34sxKMiM8Dir4Bc9d-102">
          <mxGeometry x="7" y="149" width="170" height="110" as="geometry" />
        </mxCell>
        <mxCell id="cmc34sxKMiM8Dir4Bc9d-109" value="DS: BIP32-ED25519" style="rounded=1;whiteSpace=wrap;html=1;fillColor=#e1d5e7;strokeColor=#9673a6;verticalAlign=top;" vertex="1" parent="cmc34sxKMiM8Dir4Bc9d-108">
          <mxGeometry x="-2" width="170" height="110" as="geometry" />
        </mxCell>
        <mxCell id="cmc34sxKMiM8Dir4Bc9d-110" value="KI: No" style="rounded=1;whiteSpace=wrap;html=1;fillColor=#e1d5e7;strokeColor=#9673a6;" vertex="1" parent="cmc34sxKMiM8Dir4Bc9d-108">
          <mxGeometry x="11" y="30" width="147.5" height="30" as="geometry" />
        </mxCell>
        <mxCell id="cmc34sxKMiM8Dir4Bc9d-111" value="KS: No" style="rounded=1;whiteSpace=wrap;html=1;fillColor=#e1d5e7;strokeColor=#9673a6;" vertex="1" parent="cmc34sxKMiM8Dir4Bc9d-108">
          <mxGeometry x="11" y="70" width="147.5" height="30" as="geometry" />
        </mxCell>
        <mxCell id="cmc34sxKMiM8Dir4Bc9d-115" value="" style="group" vertex="1" connectable="0" parent="1">
          <mxGeometry x="980" y="214" width="180" height="320" as="geometry" />
        </mxCell>
        <mxCell id="cmc34sxKMiM8Dir4Bc9d-78" value="" style="group" vertex="1" connectable="0" parent="cmc34sxKMiM8Dir4Bc9d-115">
          <mxGeometry y="-4" width="180" height="320" as="geometry" />
        </mxCell>
        <mxCell id="cmc34sxKMiM8Dir4Bc9d-15" value="Specification" style="rounded=1;whiteSpace=wrap;html=1;verticalAlign=top;fillColor=#dae8fc;strokeColor=#6c8ebf;" vertex="1" parent="cmc34sxKMiM8Dir4Bc9d-78">
          <mxGeometry width="180" height="320" as="geometry" />
        </mxCell>
        <mxCell id="cmc34sxKMiM8Dir4Bc9d-16" value="MG: master node generation" style="rounded=1;whiteSpace=wrap;html=1;fillColor=#dae8fc;strokeColor=#6c8ebf;" vertex="1" parent="cmc34sxKMiM8Dir4Bc9d-78">
          <mxGeometry x="7.5" y="100" width="165" height="40" as="geometry" />
        </mxCell>
        <mxCell id="cmc34sxKMiM8Dir4Bc9d-17" value="EK: Extended key" style="rounded=1;whiteSpace=wrap;html=1;fillColor=#dae8fc;strokeColor=#6c8ebf;" vertex="1" parent="cmc34sxKMiM8Dir4Bc9d-78">
          <mxGeometry x="7.5" y="65" width="165" height="30" as="geometry" />
        </mxCell>
        <mxCell id="cmc34sxKMiM8Dir4Bc9d-44" value="C: Curve" style="rounded=1;whiteSpace=wrap;html=1;fillColor=#dae8fc;strokeColor=#6c8ebf;" vertex="1" parent="cmc34sxKMiM8Dir4Bc9d-78">
          <mxGeometry x="7.5" y="30" width="165" height="30" as="geometry" />
        </mxCell>
        <mxCell id="cmc34sxKMiM8Dir4Bc9d-47" value="WS: wallet structure" style="rounded=1;whiteSpace=wrap;html=1;fillColor=#dae8fc;strokeColor=#6c8ebf;" vertex="1" parent="cmc34sxKMiM8Dir4Bc9d-78">
          <mxGeometry x="7.5" y="270" width="165" height="30" as="geometry" />
        </mxCell>
        <mxCell id="cmc34sxKMiM8Dir4Bc9d-75" value="" style="group" vertex="1" connectable="0" parent="cmc34sxKMiM8Dir4Bc9d-78">
          <mxGeometry x="7" y="149" width="170" height="110" as="geometry" />
        </mxCell>
        <mxCell id="cmc34sxKMiM8Dir4Bc9d-71" value="DS: Derivation Scheme" style="rounded=1;whiteSpace=wrap;html=1;fillColor=#dae8fc;strokeColor=#6c8ebf;verticalAlign=top;" vertex="1" parent="cmc34sxKMiM8Dir4Bc9d-75">
          <mxGeometry x="-2" width="170" height="110" as="geometry" />
        </mxCell>
        <mxCell id="cmc34sxKMiM8Dir4Bc9d-72" value="KI: key identifiers" style="rounded=1;whiteSpace=wrap;html=1;fillColor=#dae8fc;strokeColor=#6c8ebf;" vertex="1" parent="cmc34sxKMiM8Dir4Bc9d-75">
          <mxGeometry x="11" y="30" width="147.5" height="30" as="geometry" />
        </mxCell>
        <mxCell id="cmc34sxKMiM8Dir4Bc9d-73" value="KS: key serialization" style="rounded=1;whiteSpace=wrap;html=1;fillColor=#dae8fc;strokeColor=#6c8ebf;" vertex="1" parent="cmc34sxKMiM8Dir4Bc9d-75">
          <mxGeometry x="11" y="70" width="147.5" height="30" as="geometry" />
        </mxCell>
        <mxCell id="cmc34sxKMiM8Dir4Bc9d-168" value="&lt;b&gt;&lt;i&gt;&lt;font style=&quot;font-size: 21px&quot;&gt;Shelley&lt;/font&gt;&lt;/i&gt;&lt;/b&gt;" style="rounded=1;whiteSpace=wrap;html=1;fillColor=#ffcccc;fontSize=16;align=center;opacity=40;strokeColor=#36393d;verticalAlign=top;" vertex="1" parent="1">
          <mxGeometry x="785" y="10" width="190" height="680" as="geometry" />
        </mxCell>
        <mxCell id="cmc34sxKMiM8Dir4Bc9d-148" value="" style="group" vertex="1" connectable="0" parent="1">
          <mxGeometry x="790" y="210" width="180" height="320" as="geometry" />
        </mxCell>
        <mxCell id="cmc34sxKMiM8Dir4Bc9d-149" value="" style="group" vertex="1" connectable="0" parent="cmc34sxKMiM8Dir4Bc9d-148">
          <mxGeometry width="180" height="320" as="geometry" />
        </mxCell>
        <mxCell id="cmc34sxKMiM8Dir4Bc9d-150" value="" style="group" vertex="1" connectable="0" parent="cmc34sxKMiM8Dir4Bc9d-149">
          <mxGeometry width="180" height="320" as="geometry" />
        </mxCell>
        <mxCell id="cmc34sxKMiM8Dir4Bc9d-151" value="BIP32-ED25519" style="rounded=1;whiteSpace=wrap;html=1;verticalAlign=top;fillColor=#FFB570;strokeColor=#36393d;" vertex="1" parent="cmc34sxKMiM8Dir4Bc9d-150">
          <mxGeometry width="180" height="320" as="geometry" />
        </mxCell>
        <mxCell id="cmc34sxKMiM8Dir4Bc9d-152" value="MG: Daedalus" style="rounded=1;whiteSpace=wrap;html=1;fillColor=#ffff88;strokeColor=#36393d;" vertex="1" parent="cmc34sxKMiM8Dir4Bc9d-150">
          <mxGeometry x="7.5" y="100" width="165" height="40" as="geometry" />
        </mxCell>
        <mxCell id="cmc34sxKMiM8Dir4Bc9d-153" value="EK: (k,c), (K, c)" style="rounded=1;whiteSpace=wrap;html=1;fillColor=#ffcc99;strokeColor=#36393d;" vertex="1" parent="cmc34sxKMiM8Dir4Bc9d-150">
          <mxGeometry x="7.5" y="65" width="165" height="30" as="geometry" />
        </mxCell>
        <mxCell id="cmc34sxKMiM8Dir4Bc9d-154" value="C: Curve25519" style="rounded=1;whiteSpace=wrap;html=1;fillColor=#ffcc99;strokeColor=#36393d;" vertex="1" parent="cmc34sxKMiM8Dir4Bc9d-150">
          <mxGeometry x="7.5" y="30" width="165" height="30" as="geometry" />
        </mxCell>
        <mxCell id="cmc34sxKMiM8Dir4Bc9d-155" value="WS: ??1852" style="rounded=1;whiteSpace=wrap;html=1;fillColor=#ffff88;strokeColor=#36393d;" vertex="1" parent="cmc34sxKMiM8Dir4Bc9d-150">
          <mxGeometry x="7.5" y="270" width="165" height="30" as="geometry" />
        </mxCell>
        <mxCell id="cmc34sxKMiM8Dir4Bc9d-156" value="" style="group" vertex="1" connectable="0" parent="cmc34sxKMiM8Dir4Bc9d-150">
          <mxGeometry x="7" y="149" width="170" height="110" as="geometry" />
        </mxCell>
        <mxCell id="cmc34sxKMiM8Dir4Bc9d-157" value="DS: BIP32-ED25519" style="rounded=1;whiteSpace=wrap;html=1;fillColor=#ffcc99;strokeColor=#36393d;verticalAlign=top;" vertex="1" parent="cmc34sxKMiM8Dir4Bc9d-156">
          <mxGeometry x="-2" width="170" height="110" as="geometry" />
        </mxCell>
        <mxCell id="cmc34sxKMiM8Dir4Bc9d-158" value="KI: No" style="rounded=1;whiteSpace=wrap;html=1;fillColor=#ffcc99;strokeColor=#36393d;" vertex="1" parent="cmc34sxKMiM8Dir4Bc9d-156">
          <mxGeometry x="11" y="30" width="147.5" height="30" as="geometry" />
        </mxCell>
        <mxCell id="cmc34sxKMiM8Dir4Bc9d-159" value="KS: No" style="rounded=1;whiteSpace=wrap;html=1;fillColor=#ffcc99;strokeColor=#36393d;" vertex="1" parent="cmc34sxKMiM8Dir4Bc9d-156">
          <mxGeometry x="11" y="70" width="147.5" height="30" as="geometry" />
        </mxCell>
        <mxCell id="cmc34sxKMiM8Dir4Bc9d-118" value="" style="group" vertex="1" connectable="0" parent="1">
          <mxGeometry x="600" y="210" width="180" height="320" as="geometry" />
        </mxCell>
        <mxCell id="cmc34sxKMiM8Dir4Bc9d-119" value="" style="group" vertex="1" connectable="0" parent="cmc34sxKMiM8Dir4Bc9d-118">
          <mxGeometry width="180" height="320" as="geometry" />
        </mxCell>
        <mxCell id="cmc34sxKMiM8Dir4Bc9d-120" value="" style="group" vertex="1" connectable="0" parent="cmc34sxKMiM8Dir4Bc9d-119">
          <mxGeometry width="180" height="320" as="geometry" />
        </mxCell>
        <mxCell id="cmc34sxKMiM8Dir4Bc9d-121" value="SLIP23" style="rounded=1;whiteSpace=wrap;html=1;verticalAlign=top;fillColor=#d5e8d4;strokeColor=#82b366;" vertex="1" parent="cmc34sxKMiM8Dir4Bc9d-120">
          <mxGeometry width="180" height="320" as="geometry" />
        </mxCell>
        <mxCell id="cmc34sxKMiM8Dir4Bc9d-122" value="MG: BIP32-ED25519" style="rounded=1;whiteSpace=wrap;html=1;fillColor=#d5e8d4;strokeColor=#82b366;" vertex="1" parent="cmc34sxKMiM8Dir4Bc9d-120">
          <mxGeometry x="7.5" y="100" width="165" height="40" as="geometry" />
        </mxCell>
        <mxCell id="cmc34sxKMiM8Dir4Bc9d-123" value="EK: (k,c), (K, c)" style="rounded=1;whiteSpace=wrap;html=1;fillColor=#d5e8d4;strokeColor=#82b366;" vertex="1" parent="cmc34sxKMiM8Dir4Bc9d-120">
          <mxGeometry x="7.5" y="65" width="165" height="30" as="geometry" />
        </mxCell>
        <mxCell id="cmc34sxKMiM8Dir4Bc9d-124" value="C: Curve25519" style="rounded=1;whiteSpace=wrap;html=1;fillColor=#d5e8d4;strokeColor=#82b366;" vertex="1" parent="cmc34sxKMiM8Dir4Bc9d-120">
          <mxGeometry x="7.5" y="30" width="165" height="30" as="geometry" />
        </mxCell>
        <mxCell id="cmc34sxKMiM8Dir4Bc9d-125" value="WS: BIP44" style="rounded=1;whiteSpace=wrap;html=1;fillColor=#d5e8d4;strokeColor=#82b366;" vertex="1" parent="cmc34sxKMiM8Dir4Bc9d-120">
          <mxGeometry x="7.5" y="270" width="165" height="30" as="geometry" />
        </mxCell>
        <mxCell id="cmc34sxKMiM8Dir4Bc9d-126" value="" style="group" vertex="1" connectable="0" parent="cmc34sxKMiM8Dir4Bc9d-120">
          <mxGeometry x="7" y="149" width="170" height="110" as="geometry" />
        </mxCell>
        <mxCell id="cmc34sxKMiM8Dir4Bc9d-127" value="DS: BIP32-ED25519" style="rounded=1;whiteSpace=wrap;html=1;fillColor=#d5e8d4;strokeColor=#82b366;verticalAlign=top;" vertex="1" parent="cmc34sxKMiM8Dir4Bc9d-126">
          <mxGeometry x="-2" width="170" height="110" as="geometry" />
        </mxCell>
        <mxCell id="cmc34sxKMiM8Dir4Bc9d-128" value="KI: No" style="rounded=1;whiteSpace=wrap;html=1;fillColor=#d5e8d4;strokeColor=#82b366;" vertex="1" parent="cmc34sxKMiM8Dir4Bc9d-126">
          <mxGeometry x="11" y="30" width="147.5" height="30" as="geometry" />
        </mxCell>
        <mxCell id="cmc34sxKMiM8Dir4Bc9d-129" value="KS: No" style="rounded=1;whiteSpace=wrap;html=1;fillColor=#d5e8d4;strokeColor=#82b366;" vertex="1" parent="cmc34sxKMiM8Dir4Bc9d-126">
          <mxGeometry x="11" y="70" width="147.5" height="30" as="geometry" />
        </mxCell>
        <mxCell id="cmc34sxKMiM8Dir4Bc9d-114" value="" style="group" vertex="1" connectable="0" parent="1">
          <mxGeometry x="220" y="210" width="180" height="320" as="geometry" />
        </mxCell>
        <mxCell id="cmc34sxKMiM8Dir4Bc9d-90" value="" style="group" vertex="1" connectable="0" parent="cmc34sxKMiM8Dir4Bc9d-114">
          <mxGeometry width="180" height="320" as="geometry" />
        </mxCell>
        <mxCell id="cmc34sxKMiM8Dir4Bc9d-91" value="" style="group" vertex="1" connectable="0" parent="cmc34sxKMiM8Dir4Bc9d-90">
          <mxGeometry width="180" height="320" as="geometry" />
        </mxCell>
        <mxCell id="cmc34sxKMiM8Dir4Bc9d-92" value="BIP44" style="rounded=1;whiteSpace=wrap;html=1;verticalAlign=top;fillColor=#f8cecc;strokeColor=#b85450;" vertex="1" parent="cmc34sxKMiM8Dir4Bc9d-91">
          <mxGeometry width="180" height="320" as="geometry" />
        </mxCell>
        <mxCell id="cmc34sxKMiM8Dir4Bc9d-93" value="MG: BIP32" style="rounded=1;whiteSpace=wrap;html=1;fillColor=#f8cecc;strokeColor=#b85450;" vertex="1" parent="cmc34sxKMiM8Dir4Bc9d-91">
          <mxGeometry x="7.5" y="100" width="165" height="40" as="geometry" />
        </mxCell>
        <mxCell id="cmc34sxKMiM8Dir4Bc9d-94" value="EK: (k,c), (K, c)" style="rounded=1;whiteSpace=wrap;html=1;fillColor=#f8cecc;strokeColor=#b85450;" vertex="1" parent="cmc34sxKMiM8Dir4Bc9d-91">
          <mxGeometry x="7.5" y="65" width="165" height="30" as="geometry" />
        </mxCell>
        <mxCell id="cmc34sxKMiM8Dir4Bc9d-95" value="C: any" style="rounded=1;whiteSpace=wrap;html=1;fillColor=#f8cecc;strokeColor=#b85450;" vertex="1" parent="cmc34sxKMiM8Dir4Bc9d-91">
          <mxGeometry x="7.5" y="30" width="165" height="30" as="geometry" />
        </mxCell>
        <mxCell id="cmc34sxKMiM8Dir4Bc9d-96" value="WS: BIP44" style="rounded=1;whiteSpace=wrap;html=1;fillColor=#f8cecc;strokeColor=#b85450;" vertex="1" parent="cmc34sxKMiM8Dir4Bc9d-91">
          <mxGeometry x="7.5" y="270" width="165" height="30" as="geometry" />
        </mxCell>
        <mxCell id="cmc34sxKMiM8Dir4Bc9d-97" value="" style="group" vertex="1" connectable="0" parent="cmc34sxKMiM8Dir4Bc9d-91">
          <mxGeometry x="7" y="149" width="170" height="110" as="geometry" />
        </mxCell>
        <mxCell id="cmc34sxKMiM8Dir4Bc9d-98" value="DS: BIP32" style="rounded=1;whiteSpace=wrap;html=1;fillColor=#f8cecc;strokeColor=#b85450;verticalAlign=top;" vertex="1" parent="cmc34sxKMiM8Dir4Bc9d-97">
          <mxGeometry x="-2" width="170" height="110" as="geometry" />
        </mxCell>
        <mxCell id="cmc34sxKMiM8Dir4Bc9d-99" value="KI: No" style="rounded=1;whiteSpace=wrap;html=1;fillColor=#f8cecc;strokeColor=#b85450;" vertex="1" parent="cmc34sxKMiM8Dir4Bc9d-97">
          <mxGeometry x="11" y="30" width="147.5" height="30" as="geometry" />
        </mxCell>
        <mxCell id="cmc34sxKMiM8Dir4Bc9d-100" value="KS: No" style="rounded=1;whiteSpace=wrap;html=1;fillColor=#f8cecc;strokeColor=#b85450;" vertex="1" parent="cmc34sxKMiM8Dir4Bc9d-97">
          <mxGeometry x="11" y="70" width="147.5" height="30" as="geometry" />
        </mxCell>
        <mxCell id="cmc34sxKMiM8Dir4Bc9d-113" value="" style="group" vertex="1" connectable="0" parent="1">
          <mxGeometry x="30" y="210" width="180" height="320" as="geometry" />
        </mxCell>
        <mxCell id="cmc34sxKMiM8Dir4Bc9d-89" value="" style="group" vertex="1" connectable="0" parent="cmc34sxKMiM8Dir4Bc9d-113">
          <mxGeometry width="180" height="320" as="geometry" />
        </mxCell>
        <mxCell id="cmc34sxKMiM8Dir4Bc9d-79" value="" style="group" vertex="1" connectable="0" parent="cmc34sxKMiM8Dir4Bc9d-89">
          <mxGeometry width="180" height="320" as="geometry" />
        </mxCell>
        <mxCell id="cmc34sxKMiM8Dir4Bc9d-80" value="BIP32" style="rounded=1;whiteSpace=wrap;html=1;verticalAlign=top;fillColor=#fff2cc;strokeColor=#d6b656;" vertex="1" parent="cmc34sxKMiM8Dir4Bc9d-79">
          <mxGeometry width="180" height="320" as="geometry" />
        </mxCell>
        <mxCell id="cmc34sxKMiM8Dir4Bc9d-81" value="MG: BIP32" style="rounded=1;whiteSpace=wrap;html=1;fillColor=#fff2cc;strokeColor=#d6b656;" vertex="1" parent="cmc34sxKMiM8Dir4Bc9d-79">
          <mxGeometry x="7.5" y="100" width="165" height="40" as="geometry" />
        </mxCell>
        <mxCell id="cmc34sxKMiM8Dir4Bc9d-82" value="EK: (k,c), (K, c)" style="rounded=1;whiteSpace=wrap;html=1;fillColor=#fff2cc;strokeColor=#d6b656;" vertex="1" parent="cmc34sxKMiM8Dir4Bc9d-79">
          <mxGeometry x="7.5" y="65" width="165" height="30" as="geometry" />
        </mxCell>
        <mxCell id="cmc34sxKMiM8Dir4Bc9d-83" value="C: sec256k1" style="rounded=1;whiteSpace=wrap;html=1;fillColor=#fff2cc;strokeColor=#d6b656;" vertex="1" parent="cmc34sxKMiM8Dir4Bc9d-79">
          <mxGeometry x="7.5" y="30" width="165" height="30" as="geometry" />
        </mxCell>
        <mxCell id="cmc34sxKMiM8Dir4Bc9d-84" value="WS: BIP32" style="rounded=1;whiteSpace=wrap;html=1;fillColor=#fff2cc;strokeColor=#d6b656;" vertex="1" parent="cmc34sxKMiM8Dir4Bc9d-79">
          <mxGeometry x="7.5" y="270" width="165" height="30" as="geometry" />
        </mxCell>
        <mxCell id="cmc34sxKMiM8Dir4Bc9d-85" value="" style="group" vertex="1" connectable="0" parent="cmc34sxKMiM8Dir4Bc9d-79">
          <mxGeometry x="7" y="149" width="170" height="110" as="geometry" />
        </mxCell>
        <mxCell id="cmc34sxKMiM8Dir4Bc9d-86" value="DS: BIP32" style="rounded=1;whiteSpace=wrap;html=1;fillColor=#fff2cc;strokeColor=#d6b656;verticalAlign=top;" vertex="1" parent="cmc34sxKMiM8Dir4Bc9d-85">
          <mxGeometry x="-2" width="170" height="110" as="geometry" />
        </mxCell>
        <mxCell id="cmc34sxKMiM8Dir4Bc9d-87" value="KI: H(ser(K))" style="rounded=1;whiteSpace=wrap;html=1;fillColor=#fff2cc;strokeColor=#d6b656;" vertex="1" parent="cmc34sxKMiM8Dir4Bc9d-85">
          <mxGeometry x="11" y="30" width="147.5" height="30" as="geometry" />
        </mxCell>
        <mxCell id="cmc34sxKMiM8Dir4Bc9d-88" value="KS: Yes" style="rounded=1;whiteSpace=wrap;html=1;fillColor=#fff2cc;strokeColor=#d6b656;" vertex="1" parent="cmc34sxKMiM8Dir4Bc9d-85">
          <mxGeometry x="11" y="70" width="147.5" height="30" as="geometry" />
        </mxCell>
        <mxCell id="cmc34sxKMiM8Dir4Bc9d-43" value="" style="endArrow=none;dashed=1;html=1;strokeWidth=5;fillColor=#dae8fc;strokeColor=#FF3333;" edge="1" parent="cmc34sxKMiM8Dir4Bc9d-79">
          <mxGeometry width="50" height="50" relative="1" as="geometry">
            <mxPoint x="-21" y="265" as="sourcePoint" />
            <mxPoint x="1136" y="265" as="targetPoint" />
          </mxGeometry>
        </mxCell>
        <mxCell id="cmc34sxKMiM8Dir4Bc9d-35" value="&lt;font style=&quot;font-size: 24px&quot;&gt;The HD Wallet specifications&lt;br&gt;&lt;/font&gt;&lt;b&gt;&lt;font style=&quot;font-size: 12px&quot;&gt;All the HD wallets here are based on the BIP32 specification.&lt;/font&gt;&lt;/b&gt;&lt;br&gt;&lt;ul&gt;&lt;li&gt;&lt;span&gt;Derivation specifications&lt;/span&gt;&lt;/li&gt;&lt;ul&gt;&lt;li&gt;&lt;span&gt;Curve is used,&lt;/span&gt;&lt;/li&gt;&lt;li&gt;&lt;span&gt;master key generation&lt;/span&gt;&lt;/li&gt;&lt;li&gt;&lt;span&gt;Extended key specification,&lt;/span&gt;&lt;/li&gt;&lt;li&gt;&lt;span&gt;key identifiers specifications,&lt;/span&gt;&lt;/li&gt;&lt;li&gt;&lt;span&gt;key serialization specification&lt;/span&gt;&lt;/li&gt;&lt;/ul&gt;&lt;li&gt;Wallet specifications:&amp;nbsp;&lt;/li&gt;&lt;ul&gt;&lt;li&gt;account layout i.e. nodes path or wallet structure&lt;/li&gt;&lt;li&gt;addressing&lt;/li&gt;&lt;/ul&gt;&lt;/ul&gt;&lt;div&gt;Yellow means no specification.&lt;/div&gt;&lt;span&gt;&lt;br&gt;&lt;/span&gt;" style="text;html=1;align=left;verticalAlign=top;whiteSpace=wrap;rounded=0;fillColor=#fff2cc;strokeColor=#d6b656;" vertex="1" parent="1">
          <mxGeometry x="420" y="550" width="350" height="230" as="geometry" />
        </mxCell>
        <mxCell id="cmc34sxKMiM8Dir4Bc9d-7" value="BIP39" style="rounded=1;whiteSpace=wrap;html=1;align=center;fillColor=#ffff88;strokeColor=#36393d;" vertex="1" parent="1">
          <mxGeometry x="790" y="60" width="180" height="60" as="geometry" />
        </mxCell>
        <mxCell id="cmc34sxKMiM8Dir4Bc9d-37" value="" style="endArrow=none;dashed=1;html=1;strokeWidth=5;fillColor=#dae8fc;strokeColor=#FF3333;" edge="1" parent="1">
          <mxGeometry width="50" height="50" relative="1" as="geometry">
            <mxPoint x="10" y="194" as="sourcePoint" />
            <mxPoint x="1120" y="194" as="targetPoint" />
          </mxGeometry>
        </mxCell>
        <mxCell id="cmc34sxKMiM8Dir4Bc9d-39" value="Seed Generation" style="text;html=1;align=center;verticalAlign=middle;whiteSpace=wrap;rounded=0;fontStyle=1;fontSize=16;rotation=270;" vertex="1" parent="1">
          <mxGeometry x="-75" y="86.25" width="175" height="17.5" as="geometry" />
        </mxCell>
        <mxCell id="cmc34sxKMiM8Dir4Bc9d-41" value="Derivation Specification" style="text;html=1;align=center;verticalAlign=middle;whiteSpace=wrap;rounded=0;fontStyle=1;fontSize=16;rotation=270;" vertex="1" parent="1">
          <mxGeometry x="-85" y="320" width="195" height="22.5" as="geometry" />
        </mxCell>
        <mxCell id="cmc34sxKMiM8Dir4Bc9d-42" value="Wallet Specification" style="text;html=1;align=center;verticalAlign=middle;whiteSpace=wrap;rounded=0;fontStyle=1;fontSize=16;rotation=270;" vertex="1" parent="1">
          <mxGeometry x="-90" y="600" width="205" height="17.5" as="geometry" />
        </mxCell>
        <mxCell id="cmc34sxKMiM8Dir4Bc9d-116" value="SLIP39" style="rounded=1;whiteSpace=wrap;html=1;align=center;fillColor=#dae8fc;strokeColor=#6c8ebf;" vertex="1" parent="1">
          <mxGeometry x="590" y="60" width="180" height="60" as="geometry" />
        </mxCell>
        <mxCell id="cmc34sxKMiM8Dir4Bc9d-117" value="Entropy" style="rounded=1;whiteSpace=wrap;html=1;align=center;fillColor=#d5e8d4;strokeColor=#82b366;" vertex="1" parent="1">
          <mxGeometry x="350" y="60" width="180" height="60" as="geometry" />
        </mxCell>
        <mxCell id="cmc34sxKMiM8Dir4Bc9d-138" value="" style="group" vertex="1" connectable="0" parent="1">
          <mxGeometry x="980" y="550" width="180" height="130" as="geometry" />
        </mxCell>
        <mxCell id="cmc34sxKMiM8Dir4Bc9d-130" value="Addressing" style="rounded=1;whiteSpace=wrap;html=1;align=center;fillColor=#dae8fc;strokeColor=#6c8ebf;verticalAlign=top;" vertex="1" parent="cmc34sxKMiM8Dir4Bc9d-138">
          <mxGeometry width="180" height="130" as="geometry" />
        </mxCell>
        <mxCell id="cmc34sxKMiM8Dir4Bc9d-131" value="S: Serialisation" style="rounded=1;whiteSpace=wrap;html=1;align=center;fillColor=#dae8fc;strokeColor=#6c8ebf;" vertex="1" parent="cmc34sxKMiM8Dir4Bc9d-138">
          <mxGeometry x="5" y="40" width="170" height="30" as="geometry" />
        </mxCell>
        <mxCell id="cmc34sxKMiM8Dir4Bc9d-134" value="C: Coding" style="rounded=1;whiteSpace=wrap;html=1;align=center;fillColor=#dae8fc;strokeColor=#6c8ebf;" vertex="1" parent="cmc34sxKMiM8Dir4Bc9d-138">
          <mxGeometry x="5" y="80" width="170" height="30" as="geometry" />
        </mxCell>
        <mxCell id="cmc34sxKMiM8Dir4Bc9d-139" value="" style="group" vertex="1" connectable="0" parent="1">
          <mxGeometry x="30" y="560" width="180" height="130" as="geometry" />
        </mxCell>
        <mxCell id="cmc34sxKMiM8Dir4Bc9d-135" value="Bitcoin v1" style="rounded=1;whiteSpace=wrap;html=1;align=center;fillColor=#dae8fc;strokeColor=#6c8ebf;verticalAlign=top;" vertex="1" parent="cmc34sxKMiM8Dir4Bc9d-139">
          <mxGeometry width="180" height="130" as="geometry" />
        </mxCell>
        <mxCell id="cmc34sxKMiM8Dir4Bc9d-136" value="S: v1" style="rounded=1;whiteSpace=wrap;html=1;align=center;fillColor=#dae8fc;strokeColor=#6c8ebf;" vertex="1" parent="cmc34sxKMiM8Dir4Bc9d-139">
          <mxGeometry x="5" y="40" width="170" height="30" as="geometry" />
        </mxCell>
        <mxCell id="cmc34sxKMiM8Dir4Bc9d-137" value="C: Base58" style="rounded=1;whiteSpace=wrap;html=1;align=center;fillColor=#dae8fc;strokeColor=#6c8ebf;" vertex="1" parent="cmc34sxKMiM8Dir4Bc9d-139">
          <mxGeometry x="5" y="80" width="170" height="30" as="geometry" />
        </mxCell>
        <mxCell id="cmc34sxKMiM8Dir4Bc9d-140" value="" style="group" vertex="1" connectable="0" parent="1">
          <mxGeometry x="220" y="560" width="180" height="130" as="geometry" />
        </mxCell>
        <mxCell id="cmc34sxKMiM8Dir4Bc9d-141" value="Cardano Byron" style="rounded=1;whiteSpace=wrap;html=1;align=center;fillColor=#dae8fc;strokeColor=#6c8ebf;verticalAlign=top;" vertex="1" parent="cmc34sxKMiM8Dir4Bc9d-140">
          <mxGeometry width="180" height="130" as="geometry" />
        </mxCell>
        <mxCell id="cmc34sxKMiM8Dir4Bc9d-142" value="S: Cardano v2" style="rounded=1;whiteSpace=wrap;html=1;align=center;fillColor=#dae8fc;strokeColor=#6c8ebf;" vertex="1" parent="cmc34sxKMiM8Dir4Bc9d-140">
          <mxGeometry x="5" y="40" width="170" height="30" as="geometry" />
        </mxCell>
        <mxCell id="cmc34sxKMiM8Dir4Bc9d-143" value="C: Base58" style="rounded=1;whiteSpace=wrap;html=1;align=center;fillColor=#dae8fc;strokeColor=#6c8ebf;" vertex="1" parent="cmc34sxKMiM8Dir4Bc9d-140">
          <mxGeometry x="5" y="80" width="170" height="30" as="geometry" />
        </mxCell>
        <mxCell id="cmc34sxKMiM8Dir4Bc9d-144" value="" style="group" vertex="1" connectable="0" parent="1">
          <mxGeometry x="790" y="550" width="180" height="130" as="geometry" />
        </mxCell>
        <mxCell id="cmc34sxKMiM8Dir4Bc9d-145" value="Cardano Shelley" style="rounded=1;whiteSpace=wrap;html=1;align=center;fillColor=#ffff88;strokeColor=#36393d;verticalAlign=top;" vertex="1" parent="cmc34sxKMiM8Dir4Bc9d-144">
          <mxGeometry width="180" height="130" as="geometry" />
        </mxCell>
        <mxCell id="cmc34sxKMiM8Dir4Bc9d-146" value="S: Shelley &amp;amp; CBOR?" style="rounded=1;whiteSpace=wrap;html=1;align=center;fillColor=#ffff88;strokeColor=#36393d;" vertex="1" parent="cmc34sxKMiM8Dir4Bc9d-144">
          <mxGeometry x="5" y="40" width="170" height="30" as="geometry" />
        </mxCell>
        <mxCell id="cmc34sxKMiM8Dir4Bc9d-147" value="C: Bech32" style="rounded=1;whiteSpace=wrap;html=1;align=center;fillColor=#ffff88;strokeColor=#36393d;" vertex="1" parent="cmc34sxKMiM8Dir4Bc9d-144">
          <mxGeometry x="5" y="80" width="170" height="30" as="geometry" />
        </mxCell>
        <mxCell id="cmc34sxKMiM8Dir4Bc9d-160" value="Seed Generation" style="rounded=1;whiteSpace=wrap;html=1;align=center;fillColor=#dae8fc;strokeColor=#6c8ebf;" vertex="1" parent="1">
          <mxGeometry x="980" y="60" width="180" height="60" as="geometry" />
        </mxCell>
        <mxCell id="cmc34sxKMiM8Dir4Bc9d-161" value="" style="endArrow=none;dashed=1;html=1;strokeWidth=2;fillColor=#dae8fc;strokeColor=#6c8ebf;" edge="1" parent="1">
          <mxGeometry width="50" height="50" relative="1" as="geometry">
            <mxPoint x="976" y="8" as="sourcePoint" />
            <mxPoint x="976" y="820" as="targetPoint" />
          </mxGeometry>
        </mxCell>
        <mxCell id="cmc34sxKMiM8Dir4Bc9d-167" style="edgeStyle=orthogonalEdgeStyle;rounded=0;orthogonalLoop=1;jettySize=auto;html=1;entryX=0.5;entryY=0;entryDx=0;entryDy=0;strokeWidth=2;fontSize=16;" edge="1" parent="1" source="cmc34sxKMiM8Dir4Bc9d-151" target="cmc34sxKMiM8Dir4Bc9d-145">
          <mxGeometry relative="1" as="geometry" />
        </mxCell>
        <mxCell id="cmc34sxKMiM8Dir4Bc9d-170" value="BIP39" style="rounded=1;whiteSpace=wrap;html=1;align=center;fillColor=#e1d5e7;strokeColor=#9673a6;" vertex="1" parent="1">
          <mxGeometry x="110" y="60" width="180" height="60" as="geometry" />
        </mxCell>
      </root>
    </mxGraphModel>
  </diagram>
</mxfile>
